<?xml version="1.0" standalone="no"?>
<!DOCTYPE svg PUBLIC "-//W3C//DTD SVG 20010904//EN"
 "http://www.w3.org/TR/2001/REC-SVG-20010904/DTD/svg10.dtd">
<svg version="1.0" xmlns="http://www.w3.org/2000/svg"
 width="512.000000pt" height="512.000000pt" viewBox="0 0 512.000000 512.000000"
 preserveAspectRatio="xMidYMid meet">

<g transform="translate(0.000000,512.000000) scale(0.100000,-0.100000)"
fill="#000000" stroke="none">
<path d="M2035 4769 c-25 -13 -405 -386 -1021 -1002 -1079 -1079 -1024 -1018
-1011 -1128 4 -28 15 -65 26 -82 11 -18 465 -476 1008 -1018 926 -924 991
-987 1035 -999 84 -22 175 7 227 72 49 60 51 92 51 679 l0 546 46 7 c70 9 219
7 335 -4 524 -53 1016 -292 1427 -694 176 -172 341 -374 477 -587 110 -170
117 -179 162 -205 33 -20 56 -26 102 -25 90 0 152 38 194 116 20 37 22 54 21
225 -2 621 -177 1255 -477 1725 -243 382 -564 695 -952 927 -367 220 -813 365
-1210 393 -49 4 -98 9 -107 11 -15 5 -17 42 -20 457 -3 441 -4 453 -25 492
-11 22 -32 50 -45 62 -58 55 -170 69 -243 32z"/>
</g>
</svg>
